<svg xmlns="http://www.w3.org/2000/svg" xmlns:xlink="http://www.w3.org/1999/xlink" version="1.1" id="Layer_1" x="0px" y="0px" style="enable-background:new 0 0 1000 1000;" xml:space="preserve" viewBox="92.26 307.68 808 355">
<style type="text/css">
	.st0{fill:#88C160;}
	.st1{fill:#A3C844;}
	.st2{fill:#A5CB44;}
	.st3{fill:#21A2BB;}
	.st4{fill:#46AD9A;}
	.st5{fill:#60B784;}
	.st6{fill:#57B48B;}
	.st7{fill:#68B97D;}
	.st8{fill:#2AA5B6;}
	.st9{fill:#3AA7A2;}
	.st10{fill:#4FB092;}
	.st11{fill:#32A8AD;}
	.st12{fill:#1C9EBE;}
	.st13{fill:#7ABD6B;}
	.st14{fill:#6DB976;}
	.st15{fill:#37A8A7;}
	.st16{fill:#50AF90;}
	.st17{fill:#5BB386;}
	.st18{fill:#3EAAA0;}
	.st19{fill:#72BC75;}
	.st20{fill:#4DAE92;}
	.st21{fill:#299EAD;}
	.st22{fill:#188AC1;}
	.st23{fill:#178CC5;}
	.st24{fill:#1984B9;}
	.st25{fill:#1C798C;}
</style>
<path class="st0" d="M177.8,657.7c-43.3-10.9-78.2-50.4-84.2-94.6c-2.6-19.1-1.7-37.6,5.1-55.7c4.3,7.1,8.5,14.2,13,21.2  c1.6,2.4,4,4.3,6,6.4c0.3,11.9,0.5,23.7,3.9,35.3c6.7,22.9,20.5,40.3,40.4,53.2c1.9,1.3,3.9,2.5,5.8,3.8c0.9,3.1,1.6,6.3,2.9,9.2  c2.3,5.1,5.1,9.9,7.3,15C178.5,653.2,177.8,655.6,177.8,657.7z"/>
<path class="st1" d="M659.7,574.9c-4.6,0-9.3,0.2-13.9-0.1c-6.2-0.4-8-2.3-8.7-8.6c-0.1-0.7-0.1-1.3-0.1-2c0-17.9-0.1-35.8,0-53.7  c0.1-8.3,1.6-9.8,10-10c8.6-0.2,17.3-0.3,25.8,0.2c15.6,0.9,24.7,14.5,19.6,29.4c-1.3,3.9-0.7,6.5,0.9,10  c8.1,16.9-2.9,34.2-21.8,34.8C667.7,575,663.7,574.9,659.7,574.9C659.7,574.9,659.7,574.9,659.7,574.9z M655,537.9  C655,537.9,655,537.9,655,537.9c0,5-0.2,10,0.2,14.9c0.1,1.4,2,3.7,3.2,3.8c4.6,0.4,9.3,0.4,13.9,0.1c3.9-0.3,5.8-3.1,6-6.8  c0.2-3.9-1.9-6.2-5.8-6.7c-1.3-0.2-2.7-0.2-4-0.3c-4.1-0.4-5.7-3-5.7-6.8c0-3.7,1.3-6.5,5.4-7.1c1.6-0.2,3.6,0.1,4.8-0.8  c1.4-1,2.7-2.9,3-4.6c0.2-1.3-1.2-3.9-2.1-4c-5.6-0.5-11.5-1.8-16.7-0.3c-4.5,1.2-1.8,6.9-2.2,10.6C654.7,532.6,655,535.2,655,537.9  z"/>
<path class="st1" d="M762.5,499.4c19.9-0.1,37.1,17.1,37.4,37.6c0.3,21.4-16.2,39.2-36.6,39.4c-20.2,0.2-36.5-16.8-37.2-37.5  C725.6,520,739,500.5,762.5,499.4z M744.4,538.2c0.1,11.2,8.9,20.3,19.3,19.9c10.1-0.4,18.2-9.4,18.2-20.1c0-10.9-9-20.7-19.1-20.4  C753.7,517.8,743.6,525.5,744.4,538.2z"/>
<path class="st2" d="M548.7,537.8c0-9.3-0.1-18.6,0-27.9c0.2-7.6,1.3-9,8.6-9.1c13.6-0.3,27.3-0.2,40.9,0c6.5,0.1,8.4,2.3,8.5,8.3  c0.1,6.4-2.2,9.2-8.8,9.5c-8.6,0.3-17.3,0.3-25.9,0.1c-4.7-0.1-5.5,2.1-5.3,6.1c0.1,2.9,1.3,4.2,4.2,4.1c5.3-0.1,10.6-0.1,16,0.1  c6.7,0.2,8.2,1.8,8.4,8.3c0.2,6.9-1.7,9.2-8.4,9.6c-5.3,0.3-10.6,0.2-15.9,0.1c-3.8-0.1-4.2,2.1-4.2,5.1c0,3.1,0.6,5.1,4.3,5  c8.6-0.1,17.3-0.1,25.9,0c7.9,0.1,11,3.8,9.7,11.2c-0.7,4.1-2.9,6.7-7.3,6.7c-14.3,0.1-28.6,0.2-42.9-0.1c-6-0.1-7.5-1.9-7.7-8.1  C548.5,557.1,548.7,547.4,548.7,537.8C548.7,537.8,548.7,537.8,548.7,537.8z"/>
<path class="st1" d="M865.3,550.2c-1.8,1.5-3.1,2.4-4.2,3.6c-5.1,5.7-10,11.6-15.1,17.2c-5.6,6.1-9.4,6-14.8,0.1  c-3-3.2-3.6-6.2-0.6-9.6c5.3-6,10.6-11.9,15.9-17.8c5.6-6.3,6.8-5.3,0.2-12.6c-4.4-4.9-9-9.7-13.4-14.7c-6.1-6.9-6.2-9.2-1-14.1  c5.3-4.9,8.4-4.5,14.7,2.5c4,4.4,7.8,9,11.8,13.5c5.6,6.3,5.7,6.3,11.6-0.3c4.2-4.7,8.2-9.6,12.4-14.2c5.5-5.9,8.4-6.2,13.4-1.8  c5.4,4.7,5.4,7.8-0.3,14.2c-5,5.7-10,11.5-15.4,16.9c-3.6,3.6-2.5,6,0.5,9.1c5.5,5.7,10.9,11.6,16.1,17.7c4.7,5.6,4.1,9-1.5,13.4  c-4.4,3.5-7,3.5-11.2-0.8c-5.5-5.8-10.6-11.9-15.8-17.9C867.6,553.2,866.6,551.9,865.3,550.2z"/>
<path class="st1" d="M361.1,526.3c0-6.3-0.2-12.6,0.1-18.9c0.3-5.2,2.1-6.5,7.7-6.8c6.3-0.3,8.8,1.1,9.8,5.9  c0.5,2.2,0.4,4.6,0.4,6.9c0,8.6-0.2,17.3,0.1,25.9c0.1,3.6,0.9,7.2,2.1,10.6c2,5.8,6.9,7.8,12.6,7.8c5.5,0,10-2.3,11.8-7.5  c1.6-4.6,2.4-9.6,2.6-14.5c0.4-9.3,0-18.6,0.3-27.9c0.2-5.6,1.9-6.8,7.4-7.2c6.8-0.4,10.2,1.1,10.2,6.5c0,14.6,0.6,29.4-1.6,43.7  c-2.6,16.2-18.1,26.8-33.3,25.4c-16-1.5-28.7-14.4-30-30.9c-0.5-6.3-0.1-12.6-0.1-18.9C361.2,526.3,361.1,526.3,361.1,526.3z"/>
<path class="st2" d="M478.9,526.7c5.4-6.2,10.8-12.3,16.3-18.5c1.3-1.5,2.6-3,4-4.4c5.8-5.9,12.8-4.5,16.4,3c1.7,3.5-0.3,5.9-2.2,8  c-4.6,5.2-9.6,10.1-14.4,15.1c-1.6,1.7-3.3,3.3-5,4.9c-2.2,2-1.8,3.8,0.2,5.7c4.8,4.6,9.4,9.4,14.1,14.1c1.6,1.7,3.2,3.4,4.7,5.2  c4.6,5.7,4.4,8.1-0.6,12.6c-5,4.4-8.1,4.4-12.7-0.7c-7.1-7.8-14-15.8-22.5-25.5c0,8.3,0.2,14.4-0.1,20.5c-0.2,6.2-2.5,8.1-8.7,8.1  c-6.2,0-9-2-9.1-8c-0.2-19.6-0.2-39.2,0-58.8c0.1-5.9,2.7-7.5,9.4-7.3c6.2,0.2,8.1,1.6,8.4,7.3c0.3,6,0.1,11.9,0.1,17.9  C477.6,526.2,478.3,526.5,478.9,526.7z"/>
<path class="st3" d="M321.2,434.9c-0.7,6.1-1.4,12.1-2.1,18.2c-0.6,0.7-1.3,1.4-1.9,2c-2.5-1.8-5.2-3.3-7.4-5.3  c-2.8-2.6-5.1-5.7-7.6-8.5c-0.9-6.1-1.6-12.3-2.9-18.4c-3.4-16.8-10.8-30.8-27.8-37.6c2.8-2.5,2.2-5.2,0.7-8  c-10.8-19.9-21.6-39.8-32.7-59.6c-1.4-2.4-4-4.2-6-6.2c9.5-6.1,14-5,20.1,4.1c7.7,11.4,15.9,22.5,23.9,33.8c0.9,3.8,1,8,2.8,11.3  c9.8,18.3,19.9,36.5,30,54.7C313.8,421.8,317.6,428.4,321.2,434.9z"/>
<path class="st4" d="M201.5,429.3c8.6-0.1,17.2-0.3,25.8-0.4c6.6,11.8,12.9,23.7,19.8,35.2c1.7,2.8,5,4.7,7.6,7  c0,16.6,0,33.2,0,49.9c-3.6,0.4-5.2-1.9-6.7-4.7c-3.2-6.1-6.5-12.2-10.1-18.1c-2.1-3.5-3.4-8-8.2-9.1c-0.1-8.6-0.3-17.2-0.4-25.7  c-0.1-9.4,1-9.6-9.9-9.5c-3.3,0-6.6-0.3-9.9-0.4c-1.8-4.7-3.6-9.5-5.2-14.2C203.2,435.9,202.5,432.6,201.5,429.3z"/>
<path class="st5" d="M239.2,578.8c-5.3,5.8-12,8.9-19.7,10c-1.3-3.3-2.4-6.8-4.1-10c-11.9-22-23.9-43.9-35.8-65.8  c4.6-5.8,10.7-8.9,18-10c1.2,3.7,2.1,7.6,3.7,11.1c1.8,3.9,4.3,7.4,6.4,11.2c8.6,15.7,17,31.4,25.7,47  C234.7,574.8,237.2,576.7,239.2,578.8z"/>
<path class="st6" d="M239.2,578.8c-2-2.1-4.5-4-5.9-6.5c-8.7-15.6-17.1-31.3-25.7-47c-2.1-3.8-4.6-7.3-6.4-11.2  c-1.6-3.5-2.5-7.4-3.7-11.1c6.4-3.7,13.2-2,20-1.8c0.9,2.5,1.6,5,2.8,7.3c5.2,9.9,10.3,19.9,15.9,29.5c4.6,7.9,10.1,15.3,15.1,22.9  C249.6,568.4,245.1,574.1,239.2,578.8z"/>
<path class="st7" d="M179.6,513c12,21.9,24,43.8,35.8,65.8c1.7,3.1,2.7,6.6,4.1,10c-6.6,2.8-13.3,2.9-19.9,0  c-0.5-2.2-0.5-4.7-1.5-6.6c-8.3-15.6-16.8-31.2-25.4-46.7c-1-1.9-3.3-3-5-4.5C169,523.3,173.4,517.6,179.6,513z"/>
<path class="st8" d="M233.4,311.4c2,2.1,4.7,3.8,6,6.2c11,19.8,21.8,39.7,32.7,59.6c1.5,2.8,2.1,5.5-0.7,8  c-4.1-0.3-8.1-0.5-12.2-0.8c-0.6,0-1.1,0.1-1.7,0.1c-0.7,0.2-1.4,0.5-2.1,0.7c-0.7,0-1.3-0.1-2,0c0-1,0.2-2.1-0.2-2.9  c-6.3-11.7-12.7-23.5-19.3-35c-0.6-1.1-2.8-1.3-4.2-2c-0.1-8.2-0.3-16.4-0.3-24.6C229.4,317.1,229.8,313.6,233.4,311.4z"/>
<path class="st9" d="M254.8,471.2c-2.6-2.3-5.9-4.2-7.6-7c-6.9-11.6-13.3-23.5-19.8-35.2c0.7-3.1,1.8-6.1,1.9-9.2  c0.4-10.1,0.3-20.3,0.5-30.4c2.6,2.7,5.7,5.1,7.7,8.2c3.4,5.1,6.4,10.6,9.2,16.1c1.8,3.5,3.9,6,8.2,5.6  C254.8,436.5,254.8,453.8,254.8,471.2z"/>
<path class="st10" d="M251.4,560.9c-5.1-7.6-10.5-15-15.1-22.9c-5.7-9.6-10.7-19.6-15.9-29.5c-1.2-2.3-1.9-4.9-2.8-7.3  c11.5-0.8,11.5-0.8,12.2-12.1c4.8,1.1,6.1,5.6,8.2,9.1c3.5,5.9,6.8,12,10.1,18.1c1.5,2.8,3.1,5.1,6.7,4.7  c-0.4,11.8-0.8,23.7-1.4,35.5C253.3,558,252.1,559.5,251.4,560.9z"/>
<path class="st11" d="M254.8,419.2c-4.3,0.4-6.4-2.1-8.2-5.6c-2.8-5.5-5.7-11-9.2-16.1c-2-3.1-5.1-5.5-7.7-8.2c0-14.6,0-29.3,0-43.9  c1.5,0.6,3.6,0.9,4.2,2c6.6,11.6,13,23.3,19.3,35c0.4,0.8,0.1,1.9,0.2,2.9c0.4,1.9,0.9,3.8,1.3,5.8c0,2.1,0,4.2,0,6.3  c-0.2,0.2-0.5,0.4-0.5,0.5c0.1,0.4,0.3,0.8,0.5,1.2C254.8,405.8,254.8,412.5,254.8,419.2z"/>
<path class="st12" d="M321.2,434.9c-3.7-6.5-7.4-13.1-11.1-19.6c-10.1-18.2-20.2-36.3-30-54.7c-1.8-3.3-1.9-7.5-2.8-11.3  c14,12.3,27.4,25.2,35.7,42.3C319.7,405.2,323.2,419.6,321.2,434.9z"/>
<path class="st13" d="M117.6,535c-2-2.1-4.4-4-6-6.4c-4.5-7-8.7-14.1-13-21.2c3.1-10.4,7.9-19.9,14.9-28.3c3,4.7,6.3,9.3,9.1,14.1  c1.7,3,3.2,5.9,7.2,6C124.1,510.5,120.4,522.6,117.6,535z"/>
<path class="st13" d="M177.8,657.7c0-2.1,0.7-4.5,0-6.2c-2.1-5.1-5-9.9-7.3-15c-1.3-2.9-2-6.1-2.9-9.2c11.3,3.3,22.6,6.6,33.9,9.8  c2.5,5.4,5.1,10.7,7.4,16.1c1.2,2.9,1.8,6.1,2.6,9.2C199.9,663.5,188.8,661.3,177.8,657.7z"/>
<path class="st14" d="M167.6,531c1.7,1.5,4,2.7,5,4.5c8.6,15.5,17.1,31,25.4,46.7c1,1.9,1,4.4,1.5,6.6  C173.4,585.6,156.9,551.5,167.6,531z"/>
<path class="st15" d="M301.7,545c0-10.6,0-21.3,0-31.9c2.5,1.9,5.6,3.4,7.3,5.8c3.4,4.8,5.9,10.2,8.8,15.3c2.4,4.2,4.1,8.9,9.1,10.9  c-0.7,7.4-1.4,14.7-2.1,22.1c-2.5,1.5-4.9,2.2-6.8-0.9c-2.6-4.2-5.1-8.5-7.5-12.8C308.5,549.6,306.8,545.5,301.7,545z"/>
<path class="st16" d="M201.5,429.3c0.9,3.3,1.7,6.6,2.8,9.9c1.6,4.8,3.5,9.5,5.2,14.2c-9.3,1.5-18.5,2.9-27.8,4.4  c-1.6-4.6-3.3-9.3-4.9-13.9c-1.1-3-2.3-6-3.4-9.1C182.4,431.1,191.7,428.7,201.5,429.3z"/>
<path class="st11" d="M327,545c-5-1.9-6.7-6.7-9.1-10.9c-2.9-5.1-5.5-10.5-8.8-15.3c-1.7-2.4-4.8-3.9-7.3-5.8c0-3.3,0-6.7,0-10  c0.5-0.6,1.1-1.2,1.6-1.7c6.3-0.1,12.6-0.2,18.9-0.5c3.9-0.2,5.2,1.5,5.1,5.3C327.1,519,327.1,532,327,545z"/>
<path class="st17" d="M173.5,434.8c1.1,3,2.3,6,3.4,9.1c1.7,4.6,3.3,9.2,4.9,13.9c-7.4,3.5-14.8,7.1-22.2,10.6  c-4.1-7.2-8.3-14.3-12.4-21.5C154.9,440.6,163.7,436.5,173.5,434.8z"/>
<path class="st18" d="M301.7,545c5.1,0.6,6.8,4.6,8.9,8.4c2.4,4.3,4.9,8.5,7.5,12.8c1.9,3.1,4.3,2.4,6.8,0.9  c-1.6,9.9-4.2,19.4-9.5,28c-2.5-4.3-4.7-8.7-7.4-12.7c-2.8-4.2-4-10-10-11.4C299.2,562.3,300.5,553.6,301.7,545z"/>
<path class="st7" d="M147.2,446.9c4.1,7.2,8.3,14.3,12.4,21.5c-5.9,5-11.9,10-17.8,14.9c-4.1-7.5-8.2-15-12.2-22.5  C135.4,456.2,141.3,451.6,147.2,446.9z"/>
<path class="st4" d="M298,570.9c6,1.4,7.2,7.2,10,11.4c2.7,4.1,5,8.5,7.4,12.7c-3.5,5.9-6.9,11.8-10.4,17.7c-2.6-3.3-5.4-6.4-7.6-10  c-2.4-3.9-4-8.3-8.8-10.1C291.7,585.4,294.8,578.1,298,570.9z"/>
<path class="st19" d="M129.5,460.8c4.1,7.5,8.2,15,12.2,22.5c-4,5.3-7.9,10.5-11.9,15.8c-4-0.1-5.5-3-7.2-6c-2.8-4.8-6-9.4-9.1-14.1  C118.9,473,124.2,466.9,129.5,460.8z"/>
<path class="st19" d="M211.5,662.3c-0.8-3.1-1.4-6.3-2.6-9.2c-2.3-5.5-4.9-10.8-7.4-16.1c7.9-0.5,15.8-1,23.7-1.4  c1.5,3.9,3.1,7.8,4.5,11.8c1.4,3.9,2.6,7.9,3.9,11.9C226.3,660.3,218.9,661.3,211.5,662.3z"/>
<path class="st6" d="M291.3,628.6c-5.9,4.8-11.9,9.5-17.8,14.3c-1.3-3.3-2.5-6.6-3.9-9.8c-2-4.4-4.2-8.6-6.3-12.9  c5.2-4.9,10.5-9.7,15.7-14.6C283,613.2,287.2,620.9,291.3,628.6z"/>
<path class="st7" d="M233.7,659.3c-1.3-4-2.5-8-3.9-11.9c-1.4-4-3-7.9-4.5-11.8c6.7-1.7,13.4-3.5,20.1-5.2  c2.4,8.1,6.3,15.2,12.8,20.8C250,653.8,241.9,656.6,233.7,659.3z"/>
<path class="st5" d="M258.2,651.1c-6.5-5.5-10.4-12.7-12.8-20.8c6-3.4,11.9-6.8,17.9-10.2c2.1,4.3,4.3,8.5,6.3,12.9  c1.5,3.2,2.6,6.5,3.9,9.8C268.4,645.6,263.3,648.4,258.2,651.1z"/>
<path class="st20" d="M291.3,628.6c-4.1-7.7-8.3-15.4-12.4-23c3.2-4.3,6.5-8.7,9.7-13c4.8,1.8,6.4,6.2,8.8,10.1  c2.2,3.6,5,6.7,7.6,10C300.4,618,295.9,623.3,291.3,628.6z"/>
<path class="st21" d="M302.2,441.3c2.5,2.9,4.8,5.9,7.6,8.5c2.2,2.1,4.9,3.6,7.4,5.3c0,1.3,0.1,2.7,0.1,4  c-3.2,11.1-7.9,21.5-15.2,31.7C302.2,473.5,302.2,457.4,302.2,441.3z"/>
<path class="st22" d="M411.5,467.5c0-0.7,0-1.3,0-2c0.1-8.5,1-9.4,8.9-8.7c6.7,0.6,9.5,4,8.5,10.5c-0.2,1.3-1.2,2.4-1.2,3.7  c-0.1,2.5,1.2,6.5,0.2,7.1c-4.1,2.5-3.9-2.9-6.1-4.2c-1.9-1.1-3.6-1.2-4.5,1.6c-0.4,1.3-1.7,2.3-2.7,3.4c-1-1.5-2.6-2.8-2.9-4.4  C411.1,472.3,411.5,469.9,411.5,467.5C411.5,467.5,411.5,467.5,411.5,467.5z M420.1,461.8c-1.1,1.4-1.9,2.3-2.6,3.1  c0.9,0.7,1.8,2,2.7,2c0.9,0,1.8-1.3,2.7-2C422.1,464,421.4,463.2,420.1,461.8z"/>
<path class="st22" d="M529.3,476c-0.7,1.1-1.1,2.3-1.8,2.6c-0.7,0.3-2.2,0.2-2.7-0.4c-4.4-5-8.6-5.3-13.2-0.1  c-0.5,0.6-2.7,0.5-3.4-0.1c-0.7-0.6-1-2.5-0.6-3.4c2.3-5.1,4.8-10.2,7.4-15.2c1.3-2.6,4-3.6,5.4-1.1  C523.9,464,526.4,470.2,529.3,476z"/>
<path class="st22" d="M474.8,465.3c0-1-0.1-2,0-3c0.2-2.1-0.7-5.4,2.8-4.9c1.2,0.2,2.3,3.4,2.8,5.3c0.5,2.2-0.2,4.7,0.5,6.9  c0.5,1.5,2.5,3.5,3.7,3.4c1.4-0.1,3.6-1.9,3.9-3.4c0.7-2.8,0.1-5.9,0.5-8.9c0.2-1.3,1.6-2.4,2.4-3.6c1.1,1,3.1,1.9,3.1,2.9  c0.2,3.9,0.3,8-0.6,11.8c-1.3,5.4-5.2,7.8-10.2,7.5c-4.9-0.4-8.1-3.6-8.8-9c-0.2-1.6,0-3.3,0-5C474.9,465.3,474.9,465.3,474.8,465.3  z"/>
<path class="st22" d="M369.5,479.6c-1.3-1.1-2.6-1.7-3.2-2.7c-2.7-5.2-5.4-10.5-7.8-15.9c-0.4-0.9,0.4-2.3,0.6-3.4  c1.4,0.4,2.8,0.8,4.1,1.2c0.2,0.1,0.3,0.6,0.4,0.9c1.8,3,3.5,6.1,5.3,9.1c1.8-2.9,3.4-6,5.5-8.7c1-1.2,2.8-1.8,4.3-2.6  c0.2,1.7,1,3.6,0.4,5c-1.8,4.6-4.1,9-6.4,13.3C372.2,477.1,370.8,478.1,369.5,479.6z"/>
<path class="st23" d="M452,456.8c2,0,4-0.2,6,0.1c1.5,0.2,2.8,1.1,4.3,1.6c-1.1,0.9-2.2,2.5-3.4,2.5c-3,0.2-4,1.6-3.9,4.4  c0.1,3.3,0.2,6.7-0.2,9.9c-0.2,1.3-1.8,2.4-2.7,3.6c-0.9-1.1-2.3-2.1-2.7-3.4c-0.5-1.5-0.2-3.3-0.2-4.9c0-4.7,1.5-10.4-6.5-10  c-0.3,0-1.1-1.1-1-1.4c0.3-0.8,0.9-2,1.5-2c3-0.2,6-0.1,8.9-0.1C452,457,452,456.9,452,456.8z"/>
<path class="st23" d="M541.2,465.4c0-0.6-0.1-3.3,0.4-5.8c0.2-0.9,1.6-2.2,2.6-2.3c0.8-0.1,2.3,1.2,2.5,2.1c0.4,1.9,0.2,3.9,0.3,5.9  c0.1,7.4,0.2,7.3,7.8,9.5c0.9,0.3,1.4,1.7,2.2,2.5c-0.7,0.6-1.3,1.4-2.1,1.6c-1.3,0.3-2.6,0.1-3.9,0.2c-9.7,0.2-9.7,0.2-9.7-9.8  C541.2,468.7,541.2,468.1,541.2,465.4z"/>
<path class="st24" d="M393.1,467.6c0-2.6-0.2-5.3,0.1-7.8c0.1-1,1.3-2.4,2.1-2.5c1-0.1,2.9,1.1,2.9,1.8c0.2,5.8,0.3,11.7,0,17.6  c0,0.8-1.7,2.1-2.7,2.1c-0.8,0-2.2-1.4-2.3-2.3C392.9,473.5,393.1,470.6,393.1,467.6C393.1,467.6,393.1,467.6,393.1,467.6z"/>
<path class="st25" d="M317.3,459.1c0-1.3-0.1-2.7-0.1-4c0.6-0.7,1.3-1.4,1.9-2C318.5,455.1,317.9,457.1,317.3,459.1z"/>
<path class="st9" d="M254.8,391.1c-0.4-1.9-0.9-3.8-1.3-5.8c0.7,0,1.3,0,2,0C255.2,387.3,255,389.2,254.8,391.1z"/>
<path class="st15" d="M303.3,501.2c-0.5,0.6-1.1,1.2-1.6,1.7C302.3,502.4,302.8,501.8,303.3,501.2z"/>
<path class="st9" d="M254.8,399.1c-0.2-0.4-0.4-0.8-0.5-1.2c0-0.1,0.3-0.3,0.5-0.5C255.1,398,255.1,398.5,254.8,399.1z"/>
<path class="st11" d="M257.6,384.6c0.6,0,1.1-0.1,1.7-0.1l-0.8,0.3L257.6,384.6z"/>
</svg>